<svg width="20" height="20" viewBox="0 0 20 20" fill="none" xmlns="http://www.w3.org/2000/svg">
<circle cx="10" cy="10" r="10" fill="white"/>
<path d="M10 4C10.2367 4 10.4286 4.19188 10.4286 4.42857V5.28571C10.4286 5.52241 10.2367 5.71429 10 5.71429C9.76331 5.71429 9.57143 5.52241 9.57143 5.28571V4.42857C9.57143 4.19188 9.76331 4 10 4Z" fill="#0F0F10"/>
<path fill-rule="evenodd" clip-rule="evenodd" d="M10 13.4286C7.40076 13.4286 6.54362 12.5714 6.57145 10C6.59929 7.42857 7.40076 6.57143 10 6.57143C12.5993 6.57143 13.4286 7.42857 13.4286 10C13.4286 12.5714 12.5993 13.4286 10 13.4286Z" fill="#0F0F10"/>
<path d="M10.4286 14.7143C10.4286 14.4776 10.2367 14.2857 10 14.2857C9.76331 14.2857 9.57143 14.4776 9.57143 14.7143V15.5714C9.57143 15.8081 9.76331 16 10 16C10.2367 16 10.4286 15.8081 10.4286 15.5714V14.7143Z" fill="#0F0F10"/>
<path d="M16 10C16 10.2367 15.8081 10.4286 15.5714 10.4286H14.7143C14.4776 10.4286 14.2857 10.2367 14.2857 10C14.2857 9.76331 14.4776 9.57143 14.7143 9.57143H15.5714C15.8081 9.57143 16 9.76331 16 10Z" fill="#0F0F10"/>
<path d="M5.28571 10.4286C5.52241 10.4286 5.71429 10.2367 5.71429 10C5.71429 9.76331 5.52241 9.57143 5.28571 9.57143H4.42857C4.19188 9.57143 4 9.76331 4 10C4 10.2367 4.19188 10.4286 4.42857 10.4286H5.28571Z" fill="#0F0F10"/>
<path d="M5.41124 5.41124C5.57861 5.24387 5.84996 5.24387 6.01733 5.41124L6.62342 6.01733C6.79079 6.1847 6.79079 6.45606 6.62342 6.62342C6.45606 6.79079 6.1847 6.79079 6.01733 6.62342L5.41124 6.01733C5.24387 5.84996 5.24387 5.57861 5.41124 5.41124Z" fill="#0F0F10"/>
<path d="M6.01733 14.7662C5.84996 14.9336 5.57861 14.9336 5.41124 14.7662C5.24387 14.5988 5.24387 14.3275 5.41124 14.1601L6.01733 13.554C6.1847 13.3867 6.45606 13.3867 6.62342 13.554C6.79079 13.7214 6.79079 13.9928 6.62342 14.1601L6.01733 14.7662Z" fill="#0F0F10"/>
<path d="M14.7662 5.41124C14.5988 5.24387 14.3275 5.24387 14.1601 5.41124L13.554 6.01733C13.3867 6.1847 13.3867 6.45606 13.554 6.62342C13.7214 6.79079 13.9928 6.79079 14.1601 6.62342L14.7662 6.01733C14.9336 5.84996 14.9336 5.57861 14.7662 5.41124Z" fill="#0F0F10"/>
<path d="M14.1601 14.7662C14.3275 14.9336 14.5988 14.9336 14.7662 14.7662C14.9336 14.5988 14.9336 14.3275 14.7662 14.1601L14.1601 13.554C13.9928 13.3867 13.7214 13.3867 13.554 13.554C13.3867 13.7214 13.3867 13.9928 13.554 14.1601L14.1601 14.7662Z" fill="#0F0F10"/>
</svg>
