<svg width="29" height="16" viewBox="0 0 29 16" fill="none" xmlns="http://www.w3.org/2000/svg">
<path d="M2.17838 5.26C1.86904 5.9 1.62904 6.47067 1.45838 6.972C1.28771 7.47333 1.20238 7.97467 1.20238 8.476C1.20238 9.48933 1.51171 10.2787 2.13038 10.844C2.74904 11.3987 3.61838 11.676 4.73838 11.676C5.60238 11.676 6.32771 11.516 6.91438 11.196C7.51171 10.876 7.95438 10.4707 8.24238 9.98C8.53038 9.47867 8.67438 8.972 8.67438 8.46C8.67438 7.93733 8.52504 7.11067 8.22638 5.98C7.92771 4.84933 7.62371 3.804 7.31437 2.844L8.13038 1.34L11.4424 0.476C11.581 0.433333 11.7197 0.412 11.8584 0.412C12.1144 0.412 12.3117 0.492 12.4504 0.651999C12.589 0.801333 12.669 1.02 12.6904 1.308C12.733 2.19333 12.7917 3.81467 12.8664 6.172L12.9144 7.596C12.9357 8.27867 12.989 8.78533 13.0744 9.116C13.1597 9.44667 13.325 9.68667 13.5704 9.836C13.8157 9.98533 14.1944 10.06 14.7064 10.06H14.9304C15.3784 10.06 15.789 9.93733 16.1624 9.692C16.5357 9.44667 16.8504 9.084 17.1064 8.604L17.3624 8.124C17.6824 7.516 17.9544 7.036 18.1784 6.684C18.4024 6.332 18.6584 6.03867 18.9464 5.804C19.245 5.55867 19.5704 5.436 19.9224 5.436C20.5304 5.436 21.0584 5.676 21.5064 6.156C21.9544 6.62533 22.301 7.21733 22.5464 7.932C22.8024 8.636 22.957 9.34533 23.0104 10.06H23.5544C24.7384 10.06 25.613 9.95333 26.1784 9.74C26.7544 9.516 27.069 9.18 27.1224 8.732C27.1117 8.30533 26.9997 7.76133 26.7864 7.1C26.5837 6.43867 26.4024 5.94267 26.2424 5.612L27.2664 5.068C27.469 5.50533 27.6717 6.08667 27.8744 6.812C28.0877 7.53733 28.1944 8.16133 28.1944 8.684C28.1944 9.612 27.8317 10.3107 27.1064 10.78C26.381 11.2493 25.2344 11.4893 23.6664 11.5H22.9784C22.8184 12.6307 22.237 13.5213 21.2344 14.172C20.2424 14.8333 18.8824 15.2227 17.1544 15.34L16.7384 14.06C19.7784 13.8467 21.485 12.9933 21.8584 11.5C21.3784 11.5 21.0157 11.4947 20.7704 11.484C20.045 11.4627 19.4104 11.356 18.8664 11.164C18.333 10.9613 17.8637 10.652 17.4584 10.236C17.149 10.652 16.7757 10.9667 16.3384 11.18C15.901 11.3933 15.421 11.5 14.8984 11.5H14.6104C13.8317 11.4893 13.2344 11.3507 12.8184 11.084C12.4024 10.8173 12.109 10.4227 11.9384 9.9C11.7784 9.36667 11.6877 8.64667 11.6664 7.74C11.645 7.07867 11.6344 6.48667 11.6344 5.964C11.5917 3.84133 11.5437 2.43867 11.4904 1.756L8.45038 2.524C8.47171 2.59867 8.49304 2.67867 8.51438 2.764C8.54638 2.84933 8.57838 2.93467 8.61038 3.02C8.96238 4.18267 9.25038 5.20667 9.47438 6.092C9.69838 6.97733 9.81038 7.76667 9.81038 8.46C9.81038 9.24933 9.60238 10.0013 9.18638 10.716C8.78104 11.4307 8.19438 12.0067 7.42638 12.444C6.65838 12.892 5.76238 13.116 4.73838 13.116C3.73571 13.116 2.87704 12.9133 2.16238 12.508C1.45838 12.1133 0.925042 11.58 0.562375 10.908C0.210375 10.236 0.034375 9.50533 0.034375 8.716C0.034375 8.06533 0.135708 7.37733 0.338375 6.652C0.551708 5.92667 0.797042 5.292 1.07438 4.748L2.17838 5.26ZM5.57038 3.1L5.61838 4.668L4.08238 4.812L3.85838 3.244L5.57038 3.1ZM18.1144 9.036C18.3917 9.34533 18.7437 9.59067 19.1704 9.772C19.6077 9.94267 20.1144 10.0333 20.6904 10.044C20.9464 10.0547 21.3304 10.06 21.8424 10.06C21.8424 9.58 21.7677 9.084 21.6184 8.572C21.4797 8.06 21.2664 7.63333 20.9784 7.292C20.6904 6.94 20.3437 6.764 19.9384 6.764C19.597 6.764 19.2984 6.95067 19.0424 7.324C18.7864 7.68667 18.477 8.25733 18.1144 9.036ZM22.1464 1.98C22.7757 1.82 23.5117 1.69733 24.3544 1.612C25.2077 1.516 26.013 1.468 26.7704 1.468C27.101 1.468 27.341 1.47333 27.4904 1.484L27.2664 2.732C27.117 2.72133 26.877 2.716 26.5464 2.716C25.853 2.716 25.1224 2.75867 24.3544 2.844C23.5864 2.91867 22.9304 3.02533 22.3864 3.164L22.1464 1.98Z" fill="#85858F"/>
</svg>
